<?xml version="1.0" encoding="UTF-8"?>
<svg xmlns="http://www.w3.org/2000/svg" version="1.1" viewBox="0 0 3000 3000">
  <defs>
    <style>
      .text, .megaphone-outline, .megaphone-shade, .megaphone-bg, .lightning-bolt {
        stroke-width: 0px;
      }
      
      .text, .megaphone-outline {
        fill: #3b3444;
      }

      .megaphone-shade {
        fill: #745798;
      }

      .megaphone-bg {
        fill: #c49fec;
      }

      .lightning-bolt {
        fill: #e2b700;
      }
    </style>
  </defs>
  <path class="text" d="M1928.7,2110.5c-55.2-58.8,27.5-141.5,86.3-86.3,55.2,58.8-27.5,141.5-86.3,86.3Z"/>
  <path class="text" d="M2842.7,2310.4c-27.9-8.7-51.5,11.2-74.6,23.8-151.3,77.8-482,306.2-642.5,275.2-88.9-74.7,76.8-408.3,130-492.9,188.7-40.4,379.6-15.3,567.4,16.6,16.2,2.4,33.2-2.3,46.1-12.3,26.7-19.8,31.9-60.8,11.2-86.7-58.3-54.6-419.4-69.3-509.4-59,19.9-24.5,39.6-49.2,58.7-74.5,11-16.4,26.8-31.6,29.6-52,6.8-55.6-60.6-77.9-98.6-44-58.4,58.2-101.1,130-152.9,193.9-31.7,5-63.4,10-95.2,14.1-59.4,6.7-73.7,91.6-20.1,117.6-107.4,125.8-208.7,256.7-318.8,380.1,32.2-81.9,82.3-153.3,117.8-233.9,17.8-39.2-21.9-84.4-63-71.8-26.2,5.5-37.5,29.5-53.5,48.8-57.3,75.3-120,146.3-179.3,220,19.5-77.6,154.2-323.3-12-306-36.3,12.9-56.2,50-82.4,76.2-56.7,65.5-113.7,130.7-171.5,195.2,24.1-47,100.2-166.7,94.7-213.1-4-39.5-49.7-64.9-85.5-48.3-85.4,60.1-164.5,130.1-243.2,198.9,17.8-31.1,49.5-59.8,55.1-96.8,6.6-38.1-33.2-72.4-69.9-61.1-27,6.9-39.5,34.3-55.1,54.7-123.6,186.6-272.3,362.6-476.3,463.8-275.1,132-424.8,45.2-275-256,251.5,120.9,741.7-342,382.5-412.5-256.1,16.3-438.1,259.4-509.3,487.8-71.8,186.3-10.1,339.8,205.7,341.1,166.3-3,315.3-97.2,443.3-195.6,75.4,86.2,195.9-75.6,252.8-123.1,53-50.8,105.7-101.9,160.6-150.7-29.1,50.5-57.7,101.3-83.4,153.6-10.1,22.3-25,44.1-25.1,69.3,4.9,61.2,51.7,82.8,105.2,56.5,115.8-71.6,201.6-191.9,294.1-292.2-23.3,73.2-62.1,148.8-57,226.9,8.1,38.2,52.4,59.2,88,45.2,50.4-18.3,81.4-66.5,115-105.5-3.8,61.3,64.1,97,116.1,70,112.8-62.9,181-183,267-276.6-192.7,659.8,574.2,182.5,826.1,37.4,42.4-22.7,33.1-91.1-13.4-102.2ZM484.4,2225c57.4-34.8,127.5-80.4,196.9-59,25.5,11.8,2.1,50.8-4.8,69.5-70.6,130-229.3,222-377.9,196.5,43.7-83.1,107.5-155,185.8-207Z"/>
  <path class="megaphone-bg" d="M2128.2,857.3c-124.4-199-326.8-533.4-602.5-435.9-16.4,17.1-18.8,42.3-20.4,66-.1,50-19.4,95.7-29.2,144.6-51.9,252.7-117.4-140.2-212.6-58.5-20.5,23.4-25.4,66.5-31.3,98.2-26.8,122.6-60.7,245.4-107.3,361.8-52.3,109.9-123.5,208.5-191.4,309.1-17.3,27.1-32.8,57.6-53.3,83.5-31.8,41.2-72.4,74.8-106.6,113.8-60.3,71.6-14.6,136.1,40.8,192.6,29.8,29.1,64.6,58.3,106.2,49.7,29.9-8.8,51.1-33.1,70.5-59,40.2,42.4,113.5,98.6,129.1,124.8,25.5,43.3,41.6,91.4,65.3,135.8,61.8,130.1,184.1,38.8,90.6-81.7-33.4-41.1-62.7-85.1-83.5-134-13.5-33.1-16-69.4-14.9-105,1.1-11.7-43-78.3,12.3-120.4,55.3-42.1,86.9-41.8,126.5-70,111.1-76.7,201.8-183.7,252.1-309.8,10.1-27.5,16.3-56.6,20-85.8,8.6-29.5-7-140.1,48.4-99,92.3,77.4,194.3,144.2,301.6,199.3,113.2,81.5,268.7,134.7,275.8-62.6-3.8-90.2-43.6-179-86.2-257.6Z"/>
  <path class="megaphone-shade" d="M1360.7,660.8c27.3,55.8,38,109.6,115.4,84.8,20.9-7.2,80.3,15.6,90.7-5.5,4.2-9.8-.7-26.2-3.3-37.8-9.8-43-7.3-91.5,10.6-132.3,44.8-104.4,191.1-99.4,274.4-46.3,16.9,10.6,31.1,25.7,49.3,33.9,23.3,9.5,10.3-10.3,1.5-19.2-17.8-16.9-35.3-34.6-52.9-51.6-30.6-26-62-48-92.8-73.2-57.2-38.4-119.2-69-180-101.5-48.9-24.7-102.8-22.8-153.6-39.4-32.9-12.7-71.2-10.4-96.9,15.7-105.3,98.4-6.8,260.8,37.6,372.6Z"/>
  <path class="megaphone-shade" d="M2137.9,1214.5c-100.6-22.3-186.9-81.2-264.1-147.6-54-42.4-96.7-92.3-71.9-163.8,20.6-55.4-1-53.3-35.7-60-23.5-4.6-49.1-67.1-78.4-5-17.7,37.5-33,92.3-79.4,99.8-37.9.4-45.7.1-48.2,40.6,16.2,243.7-168.5,340.8-336.1,471.3-79.9,73.5-325.6,255-312.3,364.4,4.1,12.7,13.8,20.5,26.7,21.5,57.2-1.9,95.4-76,133.9-112.5,75.8-84,75.9-35.1,90,43.9,13,57,82,236.5,133.1,257.9,59.6,17.9,48.3-66.7,29-99-40.9-88.7-125.9-205.6-99.4-306.3,20-43.9,76.4-50,116.4-77.8,68.4-50.7,134.4-108.7,218.3-132.3,105.2-34.6,213.5-68.7,325.2-74,36.4-2.3,73.5-1.2,109.2-9.6,46.6-9.5,86.6-27.1,128.1-48,34.4-15.4,80.4-46,15.5-63.6Z"/>
  <path class="megaphone-outline" d="M2228.3,1109.2c-65.4-365.7-380.9-732-733.8-855.2-84.9-25.9-182.6-33.2-224.3,60.5-32,72.9-41.2,156.8-62.5,233.5-71.5,300-177.2,596-343.2,856.8-43.2,67.7-135.8,107.5-153.1,189.4-3.5,115.3,151.5,255.7,267.9,241,21.1-3.4,43.9-13.3,64-14.8,76.6-4.2,79.6,172.7,108.3,225,37.4,94.4,166.3,47,191.3-32.4,40.1-128.4-162.3-273.3-68.4-401.1,45.2-54.7,165.2-90.5,233.8-110.5,102.9-29.2,204.2-63.7,307.3-92.1,164.6-47.2,424.4-76.9,412.8-300.2ZM1203.9,1736c8,50.4,34.5,94.7,59.3,138.5,20.3,37.3,54.6,98,5.4,126.3-16.1,11-33.8,16.7-43.7-4.2-21.3-61.8-56.8-118.1-94.6-171.6-12.8-19.2-26.1-41.6-42.9-57.3-13.1-12.9-11.8-18.9.1-31.1,16.2-11.5,88.8-98,103.2-79.5,5.8,10.4,4.4,22,6.5,35.7,1.8,14.5,4.1,28.9,6.8,43.2ZM1958.5,1295.7c-170.4,21.1-335.1,80.9-500.9,125.6-103.9,26.5-138.8,56.2-219.8,121.5-55.4,42.5-107.2,89.3-154.9,140.3-102.1,116.4-126.9,164.4-256.3,33.8-52.2-51-126.1-109.5-47.6-176.3,78.5-66.8,139.9-149.2,197.3-234.1,145.5-191.1,253-413,286.2-652,7.3-57,16.2-84.1,51.7-17.4,143.5,254,355,479.3,610.5,622.4,12.1,7.6,52.5,27.4,33.9,36.2ZM1685.9,806.2c47,94.1,128.6,56.9,109.8,90.7-17,25.9-36,57.6-44,88.9-4.9,15.1-7.1,36.3-10.5,49.6-1.1,64.7-232.5-227.9-245.8-248.1-15.8-27.2,21.1-28.8,41.2-32.9,18.3-3.4,36.8-7.1,54.6-12.6,15.8-4.2,35.3-14.5,48-21.2,22.4-12.1,19.1,24,25.7,38.5,5.2,16.4,12.5,32.1,20.9,47.1ZM1783.4,822.5c-24.5,13-52-16-68.6-32-90.6-93.7,24-122,56.8-21.1,5.4,13.4,25.1,41,11.9,53.1ZM2173.1,1144.6c-28.4,207.8-256.1,83-346.3-12.6-18.2-18-24.9-38.5-25.4-64.3.7-30.9-1.9-67.4-1.8-99.6,6.9-96.2,57.2-140.3-19.8-228.7-97.4-114.8-178.1,29.2-300.8-10.8-80.7-38.4-145.5-191.2-156.6-276.4-38.7-359,445.9-19.4,560.6,100.1,120.5,159.3,301.1,386.2,290.2,592.3Z"/>
  <path class="lightning-bolt" d="M2365.8,1118.6c-101.9-6-200.5-36.2-301.9-47.4-12-2.8-23.1-6.6-32.8-13.1-52.3-41.9,33.2-70.6,67.2-79.9,70.9-21.1,14.8-19.8-19.4-22.4-21.4-4.8-170.5-1-162.9-22.3,6.7-5.7,25.4-7,36.2-7.5,99.6-2.6,198.4-14.5,298.2-13.5,14.4.3,31.1,2.2,43.4,8.4,62.5,43.4-62.1,78.5-101.5,93.9-14.3,5.9-13.8,10.1.9,14.1,44.8,10.4,91.3,17.6,135.9,29.6,27.6,8.8,55.7,16,82.8,25.9,15.2,5.4,29.7,21,9.2,29.9-15.1,6.6-38,4.9-55.3,4.2Z"/>
  <path class="lightning-bolt" d="M1832.5,746.8c-12.7-3.1,9.3-34.8,14.9-42.3,25.3-33,53.3-62.3,79.3-94.3,58.7-67.2,225.1-278.6,307.1-288.7,47.1-1.1,55,53.8,44.6,89.6-4.4,23-12.5,40.8-14.3,61.6,1.2,14.3,26.1-15.7,32.2-20.7,8.8-8.9,17.8-17.6,27.1-26.2,69.5-60.5,134.3-126.7,208.9-180.9,23.3-15,71.4-67.6,96-38.1,11,116.5-226.4,266.5-296.3,358.9-48.4,48.3-91.8,103-144.9,145.9-36.9,24.4-82.5,11.6-84.8-36-.5-48.1,23.2-100.6,28.4-147.6,2-37.2-48,5.5-62.3,13.2-68.5,43.9-119.3,108.4-177.1,164.4-13.2,12.4-42.4,41.9-58.6,41.2Z"/>
  <path class="lightning-bolt" d="M1527.2,515.5c-4.4-5.3,2.3-22,4.9-30.6,22-59.8,45.9-119,63.3-180.4,10.3-36.3,15.6-78,37.3-109.6,36.1-44.7,76.2-13.9,81.4,34.8,3.1,15.4,3.4,28.5,7.1,40.6,6,20.5,28.9-26.7,35.5-32.4,36.9-40.7,53.5-95.1,87.7-137.2,19.6-21.2,45.4-14.8,39.6,17-30.8,93.5-77.1,182.2-113.8,273.8-12.1,26.2-19.9,56.5-40.5,77.5-22.4,22-56.9,17.2-69.2-12.8-12.1-32.5-9.6-71.8-17.3-105.8-2.2-9.9-6.3-18.6-16-9.5-31.3,35.4-53.1,84.2-72.1,127.9-7.2,14-14.2,39.8-28.1,46.6Z"/>
</svg>
